<svg width="12" height="20" viewBox="0 0 12 20" fill="none" xmlns="http://www.w3.org/2000/svg">
<path d="M10.9993 0.00416134L8.40581 0C5.49208 0 3.60909 1.9319 3.60909 4.92203V7.19141H1.00142C0.776086 7.19141 0.593613 7.37409 0.593613 7.59943V10.8875C0.593613 11.1128 0.776294 11.2953 1.00142 11.2953H3.60909V19.5922C3.60909 19.8175 3.79157 20 4.0169 20H7.41917C7.64451 20 7.82698 19.8173 7.82698 19.5922V11.2953H10.876C11.1013 11.2953 11.2838 11.1128 11.2838 10.8875L11.285 7.59943C11.285 7.49123 11.2419 7.38762 11.1656 7.31105C11.0892 7.23448 10.9852 7.19141 10.877 7.19141H7.82698V5.26763C7.82698 4.34298 8.04732 3.87358 9.2518 3.87358L10.9989 3.87295C11.224 3.87295 11.4065 3.69027 11.4065 3.46514V0.411972C11.4065 0.187052 11.2243 0.00457747 10.9993 0.00416134Z" fill="#66C05D"/>
</svg>
